<?xml version="1.0" encoding="UTF-8"?>
<svg id="Layer_1" data-name="Layer 1" xmlns="http://www.w3.org/2000/svg" viewBox="0 0 640 640">
  <defs>
    <style>
      .cls-1 {
        fill: #13e07e;
      }
    </style>
  </defs>
  <g>
    <g>
      <path d="M430.18,242c-36.59-22.9-51.77-53.19-77.51-81.47-30.55-33.57-65.98-9.95-65.98-9.95-33.34,22.01-42.17,52.58-44.44,65.14-.24,1.33,1.5,2.03,2.22.9,10.23-15.97,44.62-64.93,70.42-45.8,5.64,4.18,8.81,11.06,9,18.15.31,11.77-5.32,31.18-42.09,41.09-62.5,16.85-139.3,44.87-139.3,98.33,0,40.39,43.13,56.98,62.67,62.43,1.39.39,2.17-1.57.92-2.28-19.84-11.33-65.13-42.41-33.04-75.07,40.32-41.03,127.31-34.76,156.41,3.73,24.44,32.33,21.54,113.62-7.33,135.54-38.05,28.88-81.87-58.65-90.4-119.74-.21-1.48-2.34-1.39-2.43.1-2.07,33.83-2.94,124.84,56.17,155.7,76.53,39.96,107.53-66.97,116.08-134.3,0,0,5.45-51.6,42.77-43.52,34.05,7.37,31.91,40.17-31.17,78.14-1.21.73-.47,2.61.89,2.28,19.95-4.84,75.49-24.46,83.08-59.71,0,0,9.52-41.85-66.94-89.7Z"/>
      <path d="M410.52,259.15v-.02c-.13-.37-.25-.73-.37-1.1-.18-.53-.37-1.06-.57-1.58-.27-.7-.55-1.39-.84-2.08-.09-.21-.18-.41-.28-.62l-.31-.69c-.11-.24-.22-.48-.33-.72-.16-.33-.32-.66-.49-.98l-.5-1c-.23-.43-.46-.86-.7-1.28l-.37-.66c-.21-.38-.44-.75-.67-1.12l-.49-.8c-.26-.41-.52-.81-.79-1.21l-.45-.67c-.22-.33-.45-.65-.68-.97l-.64-.89c-.2-.28-.41-.55-.62-.82l-.11-.14c-.22-.29-.44-.57-.66-.85-.22-.28-.45-.55-.68-.83-.26-.31-.52-.63-.78-.94l-.61-.7c-.3-.34-.6-.67-.9-1l-.56-.59c-.33-.35-.67-.7-1.01-1.04l-.67-.66c-.31-.3-.62-.6-.94-.9l-.68-.62c-.32-.29-.64-.59-.98-.87l-.9-.76c-.27-.22-.53-.45-.8-.67-.22-.17-.43-.34-.65-.51l-1.1-.86c-1.19-.9-2.44-1.77-3.69-2.58l-1.87-1.16c-.28-.16-.55-.32-.83-.48l-1.07-.61c-.42-.23-.85-.45-1.27-.67l-.66-.34c-.43-.22-.87-.43-1.31-.63l-.66-.31c-.43-.2-.85-.38-1.28-.56l-.72-.31c-.4-.16-.81-.32-1.21-.48-.28-.11-.55-.21-.83-.32-.29-.11-.59-.21-.88-.31l-.22-.07c-.32-.11-.64-.22-.96-.33-.26-.08-.51-.16-.77-.24l-.29-.09c-.34-.1-.67-.21-1.02-.3l-.84-.22c-.41-.11-.82-.21-1.22-.31l-.9-.2c-.39-.09-.78-.17-1.17-.24l-.7-.13c-.45-.08-.91-.16-1.36-.23l-.89-.12c-.38-.05-.77-.1-1.15-.15l-1.02-.09c-.34-.03-.67-.06-1.01-.08-.26-.02-.51-.03-.76-.04l-.62-.03c-.22-.01-.44-.02-.66-.03-1.37-.04-2.74,0-4.09.09-.21.01-.43.03-.64.05l-.57.05c-.26.02-.52.04-.78.07-.34.04-.66.08-.99.13l-.96.14c-.42.07-.82.15-1.26.23l-.66.13c-.43.09-.85.19-1.39.33l-.52.13c-.4.11-.8.23-1.2.35l-.2.06c-.16.05-.32.09-.48.15-.35.11-.69.23-1.04.35l-.82.3c-.33.12-.65.26-.97.39-.29.12-.57.23-.85.36-.28.12-.55.26-.83.39-.32.15-.63.3-.94.46-.19.1-.38.2-.56.3l-.13.07c-.34.18-.68.37-1.01.56l-.59.36c-.35.21-.7.43-1.05.66l-.52.36c-.35.24-.7.49-1.04.74-.13.1-.26.2-.39.3l-.12.09c-.33.26-.66.52-.98.79-.12.1-.24.21-.35.31l-.36.32c-.24.21-.48.42-.71.64-.17.16-.34.33-.5.49l-.42.43c-.15.15-.3.3-.44.45-.89.95-1.74,1.97-2.52,3.02-.12.17-.24.34-.36.51l-.31.44c-.15.22-.31.43-.45.65-.17.27-.34.54-.5.81l-.52.87c-.22.38-.42.76-.62,1.15l-.32.61c-.2.4-.38.8-.56,1.21l-.28.63c-.17.4-.33.81-.48,1.22l-.26.69c-.14.39-.26.78-.39,1.17l-.06.18c-.07.21-.14.43-.2.64-.09.3-.16.59-.24.89l-.09.34h0c-.07.28-.14.55-.2.83-.08.33-.14.65-.21.98l-.04.2c-.06.31-.12.62-.18.94-.04.24-.08.48-.11.73l-.02.15c-.06.43-.12.86-.17,1.29-.03.21-.04.42-.06.63v.16c-.06.47-.1.94-.13,1.41l-.03.74c-.02.49-.04.98-.04,1.48v.77c.02.49.03.98.05,1.47.01.21.03.43.04.65l.04.58c.02.35.05.7.08,1.04.03.28.06.55.1.83l.09.73c.03.25.06.5.1.75.12.78.25,1.57.41,2.35.12.6.26,1.19.4,1.78.1.42.21.83.34,1.33,3.41,12.67,11.61,24.17,23.09,32.37,9.89,7.08,20.97,10.81,31.55,10.81,3.33,0,6.6-.37,9.77-1.12,10.08-2.39,18.17-8.51,22.77-17.25,4.82-9.15,5.48-20.44,1.85-31.84ZM385.34,252.39c-.34-.53-.39-1.08-.14-1.43.21-.28.6-.39,1.07-.27,3.23.76,6.5,1.75,9.72,2.93,4.49,1.64,8.23,5.92,9.09,10.41,1.61,8.36.46,16.23-3.33,22.76-3.95,6.79-10.59,11.54-18.71,13.37-10.77,2.43-23.04-.37-33.69-7.66-8.35-5.72-14.96-13.78-18.61-22.69-1.97-4.79-.57-9.77,3.39-12.12,2.81-1.66,5.76-3.12,8.77-4.33.17-.07.35-.1.53-.1.37,0,.76.13,1.11.38.55.39.88.99.86,1.57-.1,2.41.25,4.91,1.05,7.43,3.44,10.93,14.55,19.29,25.47,19.29.2,0,.4,0,.59,0,5.85-.17,10.73-2.62,13.73-6.92,3.22-4.61,3.87-10.8,1.79-16.98-.65-1.94-1.56-3.84-2.69-5.63ZM409.95,259.31h0,0ZM342.83,221.17h0s0,0,0,0Z"/>
    </g>
    <g>
      <path class="cls-1" d="M395.99,253.62c-3.22-1.18-6.49-2.16-9.72-2.93-.47-.11-.86-.01-1.07.27-.25.35-.2.89.14,1.43,1.13,1.79,2.03,3.68,2.69,5.63,2.08,6.18,1.43,12.37-1.79,16.98-3,4.3-7.87,6.75-13.73,6.92-.2,0-.4,0-.59,0-10.92,0-22.03-8.36-25.47-19.29-.79-2.51-1.14-5.01-1.05-7.43.02-.58-.3-1.18-.86-1.57-.35-.25-.74-.38-1.11-.38-.18,0-.37.03-.53.1-3.01,1.21-5.96,2.67-8.77,4.33-3.96,2.35-5.35,7.33-3.39,12.12,3.65,8.91,10.26,16.97,18.61,22.69,10.65,7.3,22.92,10.1,33.69,7.66,8.12-1.83,14.77-6.58,18.71-13.37,3.79-6.53,4.95-14.41,3.33-22.76-.87-4.49-4.61-8.77-9.09-10.41Z"/>
      <polygon class="cls-1" points="342.83 221.17 342.83 221.17 342.83 221.17 342.83 221.17"/>
    </g>
  </g>
  <circle class="cls-1" cx="320" cy="320" r="320"/>
  <g>
    <g>
      <path d="M538.36,300.33c-8.33-19.07-28.76-48.39-78.81-79.72-31.71-19.85-50.29-43.74-69.97-69.04-8.57-11.02-17.43-22.42-27.47-33.45-20.25-22.26-42.24-24.54-57.11-22.54-16.08,2.17-27.21,9.49-27.67,9.8-42.57,28.1-53.74,67.36-56.56,82.94-.24,1.34.47,2.62,1.73,3.12,1.24.49,2.62.04,3.35-1.09,10.92-17.05,39.24-57.22,66.27-62.18,7.6-1.39,14.56.21,20.71,4.77,6.55,4.86,10.61,13.05,10.84,21.92.83,31.55-32.31,45.23-52.13,50.57-75.78,20.43-176.52,55.63-176.52,125.17,0,52.02,55.88,73.21,79.91,79.9,1.38.39,2.74-.28,3.3-1.62.56-1.34.06-2.83-1.19-3.54-18.9-10.8-51.16-32.82-54.77-58.92-1.62-11.71,2.89-23.07,13.39-33.76,24.06-24.48,64.08-37.44,107.05-34.66,38.57,2.5,71.55,17.17,88.23,39.24,14.26,18.86,22.05,53.18,20.33,89.55-1.76,37.22-12.72,66.97-29.33,79.58-9.77,7.42-20.32,8.86-31.36,4.31-17.11-7.06-35.25-28.55-51.08-60.52-14.31-28.9-25.35-64.01-29.53-93.93-.2-1.45-1.4-2.46-2.86-2.41-1.46.06-2.58,1.16-2.67,2.63-1.55,25.39-1.68,63.34,6.51,99.89,10.72,47.84,32.58,80.67,64.96,97.58,14.15,7.39,27.63,11.09,40.32,11.09,10.18,0,19.85-2.38,28.96-7.14,56.39-29.47,74.62-140.79,78.87-174.23.04-.34,3.86-34.4,23.52-48.62,8.07-5.83,17.79-7.57,28.89-5.17,15.29,3.31,24.65,10.83,26.37,21.18,3.33,20.1-21.36,48.15-66.04,75.05-1.22.74-1.7,2.18-1.15,3.51.53,1.3,1.85,1.98,3.21,1.65,32.57-7.9,96.56-34,105.65-76.21.13-.55,2.99-13.83-6.12-34.69Z"/>
      <path d="M434.1,243.29v-.03c-.16-.46-.31-.93-.47-1.39-.23-.66-.46-1.33-.71-2-.34-.88-.69-1.75-1.06-2.62-.11-.26-.23-.52-.35-.78l-.39-.86c-.14-.31-.27-.61-.42-.91-.2-.42-.41-.83-.62-1.24l-.64-1.26c-.29-.54-.59-1.08-.88-1.62l-.47-.84c-.27-.47-.56-.95-.84-1.42l-.61-1c-.32-.52-.66-1.03-.99-1.53l-.57-.85c-.28-.41-.57-.82-.86-1.23l-.8-1.12c-.26-.35-.52-.69-.79-1.04l-.14-.18c-.28-.36-.55-.72-.83-1.07-.28-.35-.57-.7-.86-1.04-.32-.4-.65-.79-.99-1.18l-.77-.88c-.37-.43-.75-.85-1.14-1.26l-.71-.75c-.42-.44-.84-.88-1.27-1.31l-.85-.84c-.39-.38-.78-.76-1.19-1.14l-.86-.78c-.4-.37-.81-.74-1.23-1.1l-1.13-.96c-.34-.28-.67-.57-1.01-.85-.27-.22-.55-.43-.82-.65l-1.39-1.08c-1.51-1.14-3.07-2.23-4.65-3.25l-2.36-1.47c-.35-.21-.7-.4-1.05-.61l-1.35-.77c-.53-.29-1.07-.57-1.6-.84l-.83-.43c-.54-.27-1.1-.54-1.65-.79l-.83-.39c-.54-.25-1.08-.48-1.61-.71l-.91-.39c-.51-.21-1.02-.4-1.52-.6-.35-.13-.7-.27-1.05-.4-.37-.14-.74-.26-1.11-.39l-.27-.09c-.4-.14-.81-.28-1.21-.41-.32-.1-.64-.2-.97-.3l-.37-.11c-.43-.13-.85-.26-1.28-.38l-1.06-.28c-.52-.13-1.03-.27-1.54-.39l-1.13-.25c-.49-.11-.98-.22-1.47-.31l-.88-.16c-.57-.1-1.14-.2-1.72-.29l-1.12-.15c-.48-.06-.96-.13-1.45-.19l-1.28-.12c-.43-.04-.85-.08-1.28-.1-.32-.02-.64-.03-.96-.05l-.78-.03c-.28-.01-.55-.03-.83-.03-1.73-.05-3.46,0-5.15.11-.27.02-.54.04-.8.07l-.71.07c-.33.03-.66.06-.98.09-.42.05-.84.1-1.25.17l-1.21.17c-.52.08-1.04.18-1.59.29l-.84.16c-.54.11-1.07.24-1.75.41l-.66.16c-.51.13-1.01.29-1.51.44l-.25.07c-.2.06-.41.12-.6.18-.44.14-.87.29-1.31.45l-1.03.38c-.41.16-.82.33-1.22.49-.36.15-.72.29-1.08.45-.35.16-.7.32-1.04.49-.4.19-.8.38-1.19.58-.24.12-.48.25-.71.38l-.17.09c-.43.23-.85.47-1.28.71l-.74.46c-.44.27-.89.54-1.32.83l-.66.46c-.44.31-.88.61-1.31.93-.17.13-.33.25-.5.38l-.15.12c-.42.32-.84.65-1.24.99-.15.13-.3.26-.45.39l-.46.4c-.3.26-.6.53-.89.81-.22.2-.42.41-.63.62l-.53.54c-.19.19-.38.37-.56.56-1.13,1.2-2.2,2.48-3.17,3.81-.16.21-.31.43-.45.65l-.39.56c-.19.27-.38.55-.56.82-.22.33-.43.68-.63,1.02l-.66,1.1c-.27.48-.53.96-.78,1.45l-.4.76c-.25.5-.48,1.01-.71,1.52l-.36.79c-.21.5-.41,1.02-.61,1.53l-.33.87c-.17.49-.33.99-.49,1.48l-.07.22c-.09.27-.17.54-.25.81-.11.37-.21.75-.31,1.12l-.11.43h0c-.09.35-.18.7-.26,1.05-.1.41-.18.82-.26,1.24l-.05.25c-.08.39-.16.78-.22,1.18-.05.31-.1.61-.14.91l-.03.19c-.08.54-.16,1.08-.22,1.62-.03.26-.06.53-.08.79l-.02.2c-.06.59-.1,1.18-.14,1.78l-.04.93c-.02.62-.05,1.24-.05,1.87v.97c.02.61.03,1.23.06,1.86.01.27.03.54.06.82l.05.73c.03.44.06.88.1,1.32.03.35.08.7.13,1.05l.11.92c.04.31.08.63.12.94.15.99.32,1.98.52,2.97.15.76.33,1.51.51,2.25.13.52.26,1.05.43,1.67,4.3,15.97,14.64,30.46,29.1,40.81,12.47,8.92,26.44,13.63,39.77,13.63,4.19,0,8.32-.47,12.32-1.41,12.71-3.01,22.91-10.73,28.7-21.75,6.07-11.54,6.91-25.77,2.33-40.14ZM402.35,234.77c-.42-.67-.49-1.36-.17-1.8.26-.36.75-.49,1.35-.34,4.07.96,8.19,2.21,12.25,3.69,5.66,2.07,10.37,7.46,11.46,13.12,2.03,10.54.58,20.46-4.2,28.7-4.97,8.56-13.35,14.55-23.59,16.86-13.57,3.07-29.05-.46-42.47-9.66-10.52-7.22-18.86-17.38-23.46-28.61-2.48-6.04-.72-12.32,4.27-15.28,3.54-2.09,7.26-3.93,11.06-5.46.21-.09.44-.13.67-.13.47,0,.96.16,1.4.47.7.5,1.11,1.25,1.08,1.98-.12,3.04.32,6.19,1.32,9.36,4.34,13.78,18.34,24.32,32.11,24.32.25,0,.5,0,.75,0,7.38-.21,13.53-3.31,17.31-8.72,4.06-5.81,4.88-13.61,2.25-21.41-.82-2.45-1.96-4.84-3.39-7.09ZM433.38,243.49h0,0ZM348.77,195.41h0s0,0,0,0Z"/>
    </g>
    <g>
      <path class="cls-1" d="M415.78,236.32c-4.06-1.49-8.18-2.73-12.25-3.69-.59-.14-1.09-.01-1.35.34-.31.44-.25,1.13.17,1.8,1.42,2.26,2.56,4.64,3.39,7.09,2.62,7.8,1.8,15.6-2.25,21.41-3.78,5.42-9.93,8.51-17.31,8.72-.25,0-.5,0-.75,0-13.77,0-27.77-10.54-32.11-24.32-1-3.17-1.44-6.32-1.32-9.36.03-.73-.38-1.48-1.08-1.98-.45-.31-.94-.47-1.4-.47-.23,0-.46.04-.67.13-3.8,1.53-7.52,3.37-11.06,5.46-4.99,2.96-6.75,9.24-4.27,15.28,4.61,11.23,12.94,21.39,23.46,28.61,13.42,9.2,28.9,12.73,42.47,9.66,10.24-2.31,18.61-8.3,23.59-16.86,4.78-8.24,6.23-18.16,4.2-28.7-1.09-5.66-5.81-11.06-11.46-13.12Z"/>
      <polygon class="cls-1" points="348.77 195.41 348.77 195.41 348.77 195.41 348.77 195.41"/>
    </g>
  </g>
</svg>